<?xml version="1.0" encoding="UTF-8" standalone="no"?>
<!DOCTYPE svg PUBLIC "-//W3C//DTD SVG 1.1//EN"
 "http://www.w3.org/Graphics/SVG/1.1/DTD/svg11.dtd">
<!-- Generated by graphviz version 8.1.0 (20230707.0739)
 -->
<!-- Pages: 1 -->
<svg width="348pt" height="416pt"
 viewBox="0.00 0.00 348.00 415.75" xmlns="http://www.w3.org/2000/svg" xmlns:xlink="http://www.w3.org/1999/xlink">
<g id="graph0" class="graph" transform="scale(1 1) rotate(0) translate(4 411.75)">
<polygon fill="white" stroke="none" points="-4,4 -4,-411.75 344,-411.75 344,4 -4,4"/>
<!-- 6604795024 -->
<g id="node1" class="node">
<title>6604795024</title>
<polygon fill="#caff70" stroke="black" points="203,-31.25 145,-31.25 145,0 203,0 203,-31.25"/>
<text text-anchor="middle" x="174" y="-5.75" font-family="monospace" font-size="10.00"> (1, 1)</text>
</g>
<!-- 6604981920 -->
<g id="node2" class="node">
<title>6604981920</title>
<polygon fill="lightgrey" stroke="black" points="224,-86.5 124,-86.5 124,-67.25 224,-67.25 224,-86.5"/>
<text text-anchor="middle" x="174" y="-73" font-family="monospace" font-size="10.00">AddmmBackward0</text>
</g>
<!-- 6604981920&#45;&gt;6604795024 -->
<g id="edge13" class="edge">
<title>6604981920&#45;&gt;6604795024</title>
<path fill="none" stroke="black" d="M174,-66.88C174,-60.39 174,-51.29 174,-42.62"/>
<polygon fill="black" stroke="black" points="177.5,-42.71 174,-32.71 170.5,-42.71 177.5,-42.71"/>
</g>
<!-- 6604981776 -->
<g id="node3" class="node">
<title>6604981776</title>
<polygon fill="lightgrey" stroke="black" points="100,-141.75 0,-141.75 0,-122.5 100,-122.5 100,-141.75"/>
<text text-anchor="middle" x="50" y="-128.25" font-family="monospace" font-size="10.00">AccumulateGrad</text>
</g>
<!-- 6604981776&#45;&gt;6604981920 -->
<g id="edge1" class="edge">
<title>6604981776&#45;&gt;6604981920</title>
<path fill="none" stroke="black" d="M71.03,-122.09C90.72,-113.64 120.38,-100.9 142.81,-91.27"/>
<polygon fill="black" stroke="black" points="144.05,-94.11 151.86,-86.95 141.29,-87.68 144.05,-94.11"/>
</g>
<!-- 6600306576 -->
<g id="node4" class="node">
<title>6600306576</title>
<polygon fill="lightblue" stroke="black" points="91,-208.25 9,-208.25 9,-177.75 91,-177.75 91,-208.25"/>
<text text-anchor="middle" x="50" y="-194.75" font-family="monospace" font-size="10.00">output.bias</text>
<text text-anchor="middle" x="50" y="-183.5" font-family="monospace" font-size="10.00"> (1)</text>
</g>
<!-- 6600306576&#45;&gt;6604981776 -->
<g id="edge2" class="edge">
<title>6600306576&#45;&gt;6604981776</title>
<path fill="none" stroke="black" d="M50,-177.45C50,-170.12 50,-161.12 50,-153.16"/>
<polygon fill="black" stroke="black" points="53.5,-153.2 50,-143.2 46.5,-153.2 53.5,-153.2"/>
</g>
<!-- 6604981728 -->
<g id="node5" class="node">
<title>6604981728</title>
<polygon fill="lightgrey" stroke="black" points="230,-141.75 118,-141.75 118,-122.5 230,-122.5 230,-141.75"/>
<text text-anchor="middle" x="174" y="-128.25" font-family="monospace" font-size="10.00">SigmoidBackward0</text>
</g>
<!-- 6604981728&#45;&gt;6604981920 -->
<g id="edge3" class="edge">
<title>6604981728&#45;&gt;6604981920</title>
<path fill="none" stroke="black" d="M174,-122.33C174,-115.67 174,-106.24 174,-97.78"/>
<polygon fill="black" stroke="black" points="177.5,-97.86 174,-87.86 170.5,-97.86 177.5,-97.86"/>
</g>
<!-- 6604981632 -->
<g id="node6" class="node">
<title>6604981632</title>
<polygon fill="lightgrey" stroke="black" points="222,-202.62 122,-202.62 122,-183.38 222,-183.38 222,-202.62"/>
<text text-anchor="middle" x="172" y="-189.12" font-family="monospace" font-size="10.00">AddmmBackward0</text>
</g>
<!-- 6604981632&#45;&gt;6604981728 -->
<g id="edge4" class="edge">
<title>6604981632&#45;&gt;6604981728</title>
<path fill="none" stroke="black" d="M172.3,-183.06C172.57,-175.1 172.98,-163.19 173.33,-152.99"/>
<polygon fill="black" stroke="black" points="176.85,-153.26 173.69,-143.15 169.86,-153.03 176.85,-153.26"/>
</g>
<!-- 6604981488 -->
<g id="node7" class="node">
<title>6604981488</title>
<polygon fill="lightgrey" stroke="black" points="122,-269.12 22,-269.12 22,-249.88 122,-249.88 122,-269.12"/>
<text text-anchor="middle" x="72" y="-255.62" font-family="monospace" font-size="10.00">AccumulateGrad</text>
</g>
<!-- 6604981488&#45;&gt;6604981632 -->
<g id="edge5" class="edge">
<title>6604981488&#45;&gt;6604981632</title>
<path fill="none" stroke="black" d="M85.9,-249.53C102.16,-239.05 129.3,-221.54 148.77,-208.98"/>
<polygon fill="black" stroke="black" points="150.38,-211.46 156.89,-203.1 146.59,-205.58 150.38,-211.46"/>
</g>
<!-- 6600303792 -->
<g id="node8" class="node">
<title>6600303792</title>
<polygon fill="lightblue" stroke="black" points="112,-341.25 30,-341.25 30,-310.75 112,-310.75 112,-341.25"/>
<text text-anchor="middle" x="71" y="-327.75" font-family="monospace" font-size="10.00">hidden.bias</text>
<text text-anchor="middle" x="71" y="-316.5" font-family="monospace" font-size="10.00"> (2)</text>
</g>
<!-- 6600303792&#45;&gt;6604981488 -->
<g id="edge6" class="edge">
<title>6600303792&#45;&gt;6604981488</title>
<path fill="none" stroke="black" d="M71.23,-310.36C71.37,-301.38 71.55,-289.76 71.7,-280.01"/>
<polygon fill="black" stroke="black" points="75.21,-280.38 71.86,-270.32 68.21,-280.27 75.21,-280.38"/>
</g>
<!-- 6604981536 -->
<g id="node9" class="node">
<title>6604981536</title>
<polygon fill="lightgrey" stroke="black" points="217,-269.12 141,-269.12 141,-249.88 217,-249.88 217,-269.12"/>
<text text-anchor="middle" x="179" y="-255.62" font-family="monospace" font-size="10.00">TBackward0</text>
</g>
<!-- 6604981536&#45;&gt;6604981632 -->
<g id="edge7" class="edge">
<title>6604981536&#45;&gt;6604981632</title>
<path fill="none" stroke="black" d="M178.03,-249.53C177.02,-240.29 175.43,-225.58 174.13,-213.63"/>
<polygon fill="black" stroke="black" points="177.52,-213.46 172.97,-203.89 170.56,-214.21 177.52,-213.46"/>
</g>
<!-- 6604981440 -->
<g id="node10" class="node">
<title>6604981440</title>
<polygon fill="lightgrey" stroke="black" points="230,-335.62 130,-335.62 130,-316.38 230,-316.38 230,-335.62"/>
<text text-anchor="middle" x="180" y="-322.12" font-family="monospace" font-size="10.00">AccumulateGrad</text>
</g>
<!-- 6604981440&#45;&gt;6604981536 -->
<g id="edge8" class="edge">
<title>6604981440&#45;&gt;6604981536</title>
<path fill="none" stroke="black" d="M179.86,-316.03C179.72,-306.79 179.49,-292.08 179.3,-280.13"/>
<polygon fill="black" stroke="black" points="182.79,-280.34 179.14,-270.39 175.79,-280.45 182.79,-280.34"/>
</g>
<!-- 6600304560 -->
<g id="node11" class="node">
<title>6600304560</title>
<polygon fill="lightblue" stroke="black" points="227,-407.75 133,-407.75 133,-377.25 227,-377.25 227,-407.75"/>
<text text-anchor="middle" x="180" y="-394.25" font-family="monospace" font-size="10.00">hidden.weight</text>
<text text-anchor="middle" x="180" y="-383" font-family="monospace" font-size="10.00"> (2, 1)</text>
</g>
<!-- 6600304560&#45;&gt;6604981440 -->
<g id="edge9" class="edge">
<title>6600304560&#45;&gt;6604981440</title>
<path fill="none" stroke="black" d="M180,-376.86C180,-367.88 180,-356.26 180,-346.51"/>
<polygon fill="black" stroke="black" points="183.5,-346.82 180,-336.82 176.5,-346.82 183.5,-346.82"/>
</g>
<!-- 6604981680 -->
<g id="node12" class="node">
<title>6604981680</title>
<polygon fill="lightgrey" stroke="black" points="325,-141.75 249,-141.75 249,-122.5 325,-122.5 325,-141.75"/>
<text text-anchor="middle" x="287" y="-128.25" font-family="monospace" font-size="10.00">TBackward0</text>
</g>
<!-- 6604981680&#45;&gt;6604981920 -->
<g id="edge10" class="edge">
<title>6604981680&#45;&gt;6604981920</title>
<path fill="none" stroke="black" d="M267.83,-122.09C250.06,-113.72 223.36,-101.13 202.98,-91.53"/>
<polygon fill="black" stroke="black" points="204.8,-88.05 194.26,-86.95 201.82,-94.38 204.8,-88.05"/>
</g>
<!-- 6604981248 -->
<g id="node13" class="node">
<title>6604981248</title>
<polygon fill="lightgrey" stroke="black" points="340,-202.62 240,-202.62 240,-183.38 340,-183.38 340,-202.62"/>
<text text-anchor="middle" x="290" y="-189.12" font-family="monospace" font-size="10.00">AccumulateGrad</text>
</g>
<!-- 6604981248&#45;&gt;6604981680 -->
<g id="edge11" class="edge">
<title>6604981248&#45;&gt;6604981680</title>
<path fill="none" stroke="black" d="M289.54,-183.06C289.14,-175.1 288.53,-163.19 288.01,-152.99"/>
<polygon fill="black" stroke="black" points="291.46,-152.96 287.46,-143.15 284.47,-153.32 291.46,-152.96"/>
</g>
<!-- 6600306864 -->
<g id="node14" class="node">
<title>6600306864</title>
<polygon fill="lightblue" stroke="black" points="337,-274.75 243,-274.75 243,-244.25 337,-244.25 337,-274.75"/>
<text text-anchor="middle" x="290" y="-261.25" font-family="monospace" font-size="10.00">output.weight</text>
<text text-anchor="middle" x="290" y="-250" font-family="monospace" font-size="10.00"> (1, 2)</text>
</g>
<!-- 6600306864&#45;&gt;6604981248 -->
<g id="edge12" class="edge">
<title>6600306864&#45;&gt;6604981248</title>
<path fill="none" stroke="black" d="M290,-243.86C290,-234.88 290,-223.26 290,-213.51"/>
<polygon fill="black" stroke="black" points="293.5,-213.82 290,-203.82 286.5,-213.82 293.5,-213.82"/>
</g>
</g>
</svg>