<?xml version="1.0" encoding="utf-8" standalone="no"?>
<!DOCTYPE svg PUBLIC "-//W3C//DTD SVG 1.1//EN"
  "http://www.w3.org/Graphics/SVG/1.1/DTD/svg11.dtd">
<svg xmlns:xlink="http://www.w3.org/1999/xlink" width="269.616875pt" height="293.02675pt" viewBox="0 0 269.616875 293.02675" xmlns="http://www.w3.org/2000/svg" version="1.1">
 <metadata>
  <rdf:RDF xmlns:dc="http://purl.org/dc/elements/1.1/" xmlns:cc="http://creativecommons.org/ns#" xmlns:rdf="http://www.w3.org/1999/02/22-rdf-syntax-ns#">
   <cc:Work>
    <dc:type rdf:resource="http://purl.org/dc/dcmitype/StillImage"/>
    <dc:date>2023-01-28T20:06:15.800986</dc:date>
    <dc:format>image/svg+xml</dc:format>
    <dc:creator>
     <cc:Agent>
      <dc:title>Matplotlib v3.6.3, https://matplotlib.org/</dc:title>
     </cc:Agent>
    </dc:creator>
   </cc:Work>
  </rdf:RDF>
 </metadata>
 <defs>
  <style type="text/css">*{stroke-linejoin: round; stroke-linecap: butt}</style>
 </defs>
 <g id="figure_1">
  <g id="patch_1">
   <path d="M 0 293.02675 
L 269.616875 293.02675 
L 269.616875 0 
L 0 0 
z
" style="fill: #ffffff"/>
  </g>
  <g id="axes_1">
   <g id="patch_2">
    <path d="M 40.656875 247.728 
L 262.416875 247.728 
L 262.416875 25.968 
L 40.656875 25.968 
z
" style="fill: #ffffff"/>
   </g>
   <g id="Quiver_1">
    <path d="M 51.180395 237.648 
L 50.958635 237.2639 
L 50.515115 237.2639 
L 50.293355 237.648 
L 50.515115 238.0321 
L 50.958635 238.0321 
L 51.180395 237.648 
L 50.958635 237.2639 
" clip-path="url(#peac0136dbd)"/>
    <path d="M 65.022184 237.648 
L 65.022184 237.533309 
L 64.792802 237.648 
L 65.136875 236.50109 
L 65.480948 237.648 
L 65.251566 237.533309 
L 65.251566 237.648 
L 65.022184 237.648 
" clip-path="url(#peac0136dbd)"/>
    <path d="M 79.307493 237.648 
L 79.307493 237.418618 
L 78.848729 237.648 
L 79.536875 235.354181 
L 80.225021 237.648 
L 79.766257 237.418618 
L 79.766257 237.648 
L 79.307493 237.648 
" clip-path="url(#peac0136dbd)"/>
    <path d="M 93.592802 237.648 
L 93.592802 237.303927 
L 92.904656 237.648 
L 93.936875 234.207271 
L 94.969094 237.648 
L 94.280948 237.303927 
L 94.280948 237.648 
L 93.592802 237.648 
" clip-path="url(#peac0136dbd)"/>
    <path d="M 107.893355 237.648 
L 107.893355 237.052041 
L 107.006315 237.495561 
L 108.336875 233.060361 
L 109.667435 237.495561 
L 108.780395 237.052041 
L 108.780395 237.648 
L 107.893355 237.648 
" clip-path="url(#peac0136dbd)"/>
    <path d="M 122.293355 237.648 
L 122.293355 235.905132 
L 121.406315 236.348652 
L 122.736875 231.913452 
L 124.067435 236.348652 
L 123.180395 235.905132 
L 123.180395 237.648 
L 122.293355 237.648 
" clip-path="url(#peac0136dbd)"/>
    <path d="M 136.693355 237.648 
L 136.693355 234.758222 
L 135.806315 235.201742 
L 137.136875 230.766542 
L 138.467435 235.201742 
L 137.580395 234.758222 
L 137.580395 237.648 
L 136.693355 237.648 
" clip-path="url(#peac0136dbd)"/>
    <path d="M 151.093355 237.648 
L 151.093355 233.611312 
L 150.206315 234.054832 
L 151.536875 229.619632 
L 152.867435 234.054832 
L 151.980395 233.611312 
L 151.980395 237.648 
L 151.093355 237.648 
" clip-path="url(#peac0136dbd)"/>
    <path d="M 165.493355 237.648 
L 165.493355 232.464403 
L 164.606315 232.907923 
L 165.936875 228.472723 
L 167.267435 232.907923 
L 166.380395 232.464403 
L 166.380395 237.648 
L 165.493355 237.648 
" clip-path="url(#peac0136dbd)"/>
    <path d="M 179.893355 237.648 
L 179.893355 231.317493 
L 179.006315 231.761013 
L 180.336875 227.325813 
L 181.667435 231.761013 
L 180.780395 231.317493 
L 180.780395 237.648 
L 179.893355 237.648 
" clip-path="url(#peac0136dbd)"/>
    <path d="M 194.293355 237.648 
L 194.293355 230.170583 
L 193.406315 230.614103 
L 194.736875 226.178903 
L 196.067435 230.614103 
L 195.180395 230.170583 
L 195.180395 237.648 
L 194.293355 237.648 
" clip-path="url(#peac0136dbd)"/>
    <path d="M 208.693355 237.648 
L 208.693355 229.023674 
L 207.806315 229.467194 
L 209.136875 225.031994 
L 210.467435 229.467194 
L 209.580395 229.023674 
L 209.580395 237.648 
L 208.693355 237.648 
" clip-path="url(#peac0136dbd)"/>
    <path d="M 223.093355 237.648 
L 223.093355 227.876764 
L 222.206315 228.320284 
L 223.536875 223.885084 
L 224.867435 228.320284 
L 223.980395 227.876764 
L 223.980395 237.648 
L 223.093355 237.648 
" clip-path="url(#peac0136dbd)"/>
    <path d="M 237.493355 237.648 
L 237.493355 226.729854 
L 236.606315 227.173374 
L 237.936875 222.738174 
L 239.267435 227.173374 
L 238.380395 226.729854 
L 238.380395 237.648 
L 237.493355 237.648 
" clip-path="url(#peac0136dbd)"/>
    <path d="M 251.893355 237.648 
L 251.893355 225.582945 
L 251.006315 226.026465 
L 252.336875 221.591265 
L 253.667435 226.026465 
L 252.780395 225.582945 
L 252.780395 237.648 
L 251.893355 237.648 
" clip-path="url(#peac0136dbd)"/>
    <path d="M 50.736875 223.133309 
L 50.851566 223.133309 
L 50.736875 222.903927 
L 51.883785 223.248 
L 50.736875 223.592073 
L 50.851566 223.362691 
L 50.736875 223.362691 
L 50.736875 223.133309 
" clip-path="url(#peac0136dbd)"/>
    <path d="M 65.022566 223.133691 
L 65.136875 223.019382 
L 64.793948 222.905073 
L 66.279965 222.10491 
L 65.479802 223.590927 
L 65.365493 223.248 
L 65.251184 223.362309 
L 65.022566 223.133691 
" clip-path="url(#peac0136dbd)"/>
    <path d="M 79.310543 223.134834 
L 79.423709 222.908503 
L 78.85788 222.908503 
L 80.668533 220.984684 
L 80.21587 223.587497 
L 79.876372 223.134834 
L 79.763207 223.361166 
L 79.310543 223.134834 
" clip-path="url(#peac0136dbd)"/>
    <path d="M 93.603069 223.136731 
L 93.714337 222.802925 
L 92.935456 222.914194 
L 95.049563 219.909935 
L 94.938294 223.581806 
L 94.38195 223.025462 
L 94.270681 223.359269 
L 93.603069 223.136731 
" clip-path="url(#peac0136dbd)"/>
    <path d="M 107.906597 223.140431 
L 108.024781 222.667697 
L 107.056656 222.882836 
L 109.423183 218.902768 
L 109.638322 223.528252 
L 108.885336 222.882836 
L 108.767153 223.355569 
L 107.906597 223.140431 
" clip-path="url(#peac0136dbd)"/>
    <path d="M 122.301968 223.161019 
L 122.571828 221.81172 
L 121.615032 222.072664 
L 123.789568 217.984537 
L 124.224475 222.594552 
L 123.441642 221.985682 
L 123.171782 223.334981 
L 122.301968 223.161019 
" clip-path="url(#peac0136dbd)"/>
    <path d="M 136.69939 223.175086 
L 137.055228 221.040057 
L 136.107343 221.331714 
L 138.148941 217.175603 
L 138.732255 221.7692 
L 137.930198 221.185886 
L 137.57436 223.320914 
L 136.69939 223.175086 
" clip-path="url(#peac0136dbd)"/>
    <path d="M 151.097813 223.185277 
L 151.498003 220.383944 
L 150.557155 220.69756 
L 152.501574 216.495105 
L 153.191529 221.073899 
L 152.376128 220.50939 
L 151.975937 223.310723 
L 151.097813 223.185277 
" clip-path="url(#peac0136dbd)"/>
    <path d="M 165.49678 223.192988 
L 165.91258 219.866587 
L 164.977378 220.196658 
L 166.847782 215.960743 
L 167.617949 220.526729 
L 166.79277 219.97661 
L 166.37697 223.303012 
L 165.49678 223.192988 
" clip-path="url(#peac0136dbd)"/>
    <path d="M 179.896068 223.199021 
L 180.306309 219.506853 
L 179.375715 219.849703 
L 181.187923 215.588566 
L 182.020559 220.143575 
L 181.187923 219.60481 
L 180.777682 223.296979 
L 179.896068 223.199021 
" clip-path="url(#peac0136dbd)"/>
    <path d="M 194.295556 223.203868 
L 194.68389 219.320526 
L 193.757121 219.673581 
L 195.522396 215.392788 
L 196.405034 219.938372 
L 195.566528 219.40879 
L 195.178194 223.292132 
L 194.295556 223.203868 
" clip-path="url(#peac0136dbd)"/>
    <path d="M 208.695176 223.207846 
L 209.048549 219.320745 
L 208.124998 219.682135 
L 209.851637 215.385613 
L 210.775189 219.923062 
L 209.931946 219.401054 
L 209.578574 223.288154 
L 208.695176 223.207846 
" clip-path="url(#peac0136dbd)"/>
    <path d="M 223.094887 223.211168 
L 223.402639 219.51814 
L 222.481831 219.886464 
L 224.176118 215.577081 
L 225.133759 220.107458 
L 224.286615 219.591805 
L 223.978863 223.284832 
L 223.094887 223.211168 
" clip-path="url(#peac0136dbd)"/>
    <path d="M 237.494661 223.213984 
L 237.74798 219.920841 
L 236.829536 220.295021 
L 238.496342 215.974935 
L 239.482818 220.49912 
L 238.632407 219.988873 
L 238.379089 223.282016 
L 237.494661 223.213984 
" clip-path="url(#peac0136dbd)"/>
    <path d="M 251.894482 223.216401 
L 252.08605 220.534444 
L 251.169665 220.913638 
L 252.812839 216.584508 
L 253.824022 221.103235 
L 252.970836 220.597643 
L 252.779268 223.279599 
L 251.894482 223.216401 
" clip-path="url(#peac0136dbd)"/>
    <path d="M 50.736875 208.618618 
L 50.966257 208.618618 
L 50.736875 208.159854 
L 53.030694 208.848 
L 50.736875 209.536146 
L 50.966257 209.077382 
L 50.736875 209.077382 
L 50.736875 208.618618 
" clip-path="url(#peac0136dbd)"/>
    <path d="M 65.023709 208.621668 
L 65.250041 208.508503 
L 64.797378 208.169005 
L 67.400191 207.716342 
L 65.476372 209.526995 
L 65.476372 208.961166 
L 65.250041 209.074332 
L 65.023709 208.621668 
" clip-path="url(#peac0136dbd)"/>
    <path d="M 79.319613 208.630738 
L 79.536875 208.413477 
L 78.88509 208.196215 
L 81.709491 206.675384 
L 80.18866 209.499785 
L 79.971398 208.848 
L 79.754137 209.065262 
L 79.319613 208.630738 
" clip-path="url(#peac0136dbd)"/>
    <path d="M 93.633255 208.645587 
L 93.835668 208.341967 
L 93.026015 208.24076 
L 95.961007 205.811801 
L 94.847735 209.45524 
L 94.442908 208.746793 
L 94.240495 209.050413 
L 93.633255 208.645587 
" clip-path="url(#peac0136dbd)"/>
    <path d="M 107.972512 208.665819 
L 108.154694 208.301456 
L 107.243786 208.301456 
L 110.158689 205.204371 
L 109.429964 209.394544 
L 108.883419 208.665819 
L 108.701238 209.030181 
L 107.972512 208.665819 
" clip-path="url(#peac0136dbd)"/>
    <path d="M 122.344114 208.690896 
L 122.501219 208.298135 
L 121.558593 208.376687 
L 124.307917 204.920394 
L 123.915157 209.319313 
L 123.28674 208.612344 
L 123.129636 209.005104 
L 122.344114 208.690896 
" clip-path="url(#peac0136dbd)"/>
    <path d="M 136.753329 208.720151 
L 136.881178 208.336605 
L 135.986237 208.464454 
L 138.415362 205.01254 
L 138.287513 209.231546 
L 137.64827 208.592303 
L 137.520421 208.975849 
L 136.753329 208.720151 
" clip-path="url(#peac0136dbd)"/>
    <path d="M 151.2037 208.752807 
L 151.298893 208.419633 
L 150.537351 208.562422 
L 152.488802 205.516254 
L 152.536399 209.133578 
L 151.965242 208.610018 
L 151.87005 208.943193 
L 151.2037 208.752807 
" clip-path="url(#peac0136dbd)"/>
    <path d="M 165.696855 208.787995 
L 165.75686 208.547975 
L 165.216814 208.667985 
L 166.536926 206.447798 
L 166.656936 209.028015 
L 166.2369 208.667985 
L 166.176895 208.908005 
L 165.696855 208.787995 
" clip-path="url(#peac0136dbd)"/>
    <path d="M 180.232378 208.824779 
L 180.2556 208.720282 
L 180.023385 208.778336 
L 180.569089 207.803035 
L 180.650365 208.917664 
L 180.464593 208.766725 
L 180.441372 208.871221 
L 180.232378 208.824779 
" clip-path="url(#peac0136dbd)"/>
    <path d="M 194.649894 209.282907 
L 195.070025 209.140782 
L 195.157006 208.705875 
L 194.823856 208.413093 
L 194.403725 208.555218 
L 194.316744 208.990125 
L 194.649894 209.282907 
L 195.070025 209.140782 
" clip-path="url(#peac0136dbd)"/>
    <path d="M 209.418496 208.899204 
L 209.367292 209.180825 
L 209.981739 209.001612 
L 208.624836 211.664212 
L 208.292011 208.694388 
L 208.80405 209.078417 
L 208.855254 208.796796 
L 209.418496 208.899204 
" clip-path="url(#peac0136dbd)"/>
    <path d="M 223.97436 208.920914 
L 223.761928 210.195512 
L 224.709813 209.903855 
L 222.668214 214.059966 
L 222.0849 209.466369 
L 222.886957 210.049683 
L 223.09939 208.775086 
L 223.97436 208.920914 
" clip-path="url(#peac0136dbd)"/>
    <path d="M 238.375238 208.91544 
L 237.780021 212.784348 
L 238.724187 212.480867 
L 236.734695 216.662172 
L 236.094011 212.076224 
L 236.903296 212.649468 
L 237.498512 208.78056 
L 238.375238 208.91544 
" clip-path="url(#peac0136dbd)"/>
    <path d="M 252.775937 208.910723 
L 251.83672 215.485242 
L 252.777568 215.171626 
L 250.833149 219.374081 
L 250.143194 214.795287 
L 250.958596 215.359796 
L 251.897813 208.785277 
L 252.775937 208.910723 
" clip-path="url(#peac0136dbd)"/>
    <path d="M 50.736875 194.103927 
L 51.080948 194.103927 
L 50.736875 193.415781 
L 54.177604 194.448 
L 50.736875 195.480219 
L 51.080948 194.792073 
L 50.736875 194.792073 
L 50.736875 194.103927 
" clip-path="url(#peac0136dbd)"/>
    <path d="M 65.025606 194.114194 
L 65.359413 194.002925 
L 64.803069 193.446581 
L 68.47494 193.335312 
L 65.470681 195.449419 
L 65.58195 194.670538 
L 65.248144 194.781806 
L 65.025606 194.114194 
" clip-path="url(#peac0136dbd)"/>
    <path d="M 79.334462 194.14438 
L 79.638082 193.941967 
L 78.929635 193.53714 
L 82.573074 192.423868 
L 80.144115 195.35886 
L 80.042908 194.549207 
L 79.739288 194.75162 
L 79.334462 194.14438 
" clip-path="url(#peac0136dbd)"/>
    <path d="M 93.681561 194.192686 
L 93.936875 193.937371 
L 93.170932 193.682057 
L 96.49002 191.894855 
L 94.702818 195.213943 
L 94.447504 194.448 
L 94.192189 194.703314 
L 93.681561 194.192686 
" clip-path="url(#peac0136dbd)"/>
    <path d="M 108.081178 194.256227 
L 108.272951 194.00053 
L 107.569783 193.872681 
L 110.254605 191.891027 
L 109.103967 195.023319 
L 108.784345 194.384076 
L 108.592572 194.639773 
L 108.081178 194.256227 
" clip-path="url(#peac0136dbd)"/>
    <path d="M 122.54223 194.331213 
L 122.659017 194.136567 
L 122.152939 194.097638 
L 123.904748 192.501546 
L 123.320811 194.798362 
L 123.048308 194.370142 
L 122.93152 194.564787 
L 122.54223 194.331213 
" clip-path="url(#peac0136dbd)"/>
    <path d="M 137.335223 194.051304 
L 136.8925 194.077877 
L 136.694152 194.474574 
L 136.938527 194.844696 
L 137.38125 194.818123 
L 137.579598 194.421426 
L 137.335223 194.051304 
L 136.8925 194.077877 
" clip-path="url(#peac0136dbd)"/>
    <path d="M 151.651679 194.497202 
L 151.602477 194.612005 
L 151.881286 194.595605 
L 151.044859 195.596037 
L 151.192464 194.300395 
L 151.37287 194.513602 
L 151.422071 194.398798 
L 151.651679 194.497202 
" clip-path="url(#peac0136dbd)"/>
    <path d="M 166.284339 194.578299 
L 166.15404 194.925764 
L 166.979268 194.838897 
L 164.633883 197.922644 
L 164.894482 194.057103 
L 165.459111 194.665165 
L 165.589411 194.317701 
L 166.284339 194.578299 
" clip-path="url(#peac0136dbd)"/>
    <path d="M 180.757635 194.588253 
L 179.983705 196.910044 
L 180.965478 196.769791 
L 178.300665 200.556631 
L 178.440918 195.928271 
L 179.142185 196.629537 
L 179.916115 194.307747 
L 180.757635 194.588253 
" clip-path="url(#peac0136dbd)"/>
    <path d="M 195.16169 194.575445 
L 193.660774 199.578497 
L 194.637849 199.408571 
L 192.088959 203.274388 
L 192.088959 198.643903 
L 192.811144 199.323608 
L 194.31206 194.320555 
L 195.16169 194.575445 
" clip-path="url(#peac0136dbd)"/>
    <path d="M 209.564767 194.564698 
L 207.513442 202.086224 
L 208.485924 201.891728 
L 206.035269 205.820555 
L 205.918571 201.191541 
L 206.657658 201.852829 
L 208.708983 194.331302 
L 209.564767 194.564698 
" clip-path="url(#peac0136dbd)"/>
    <path d="M 223.967153 194.555569 
L 221.565073 204.163889 
L 222.533197 203.94875 
L 220.166671 207.928818 
L 219.951532 203.303333 
L 220.704518 203.94875 
L 223.106597 194.340431 
L 223.967153 194.555569 
" clip-path="url(#peac0136dbd)"/>
    <path d="M 238.369037 194.54773 
L 235.828921 205.554898 
L 236.792975 205.322196 
L 234.499192 209.344626 
L 234.200003 204.723817 
L 234.964597 205.355439 
L 237.504713 194.34827 
L 238.369037 194.54773 
" clip-path="url(#peac0136dbd)"/>
    <path d="M 252.77055 194.54093 
L 250.306908 206.037926 
L 251.267188 205.790112 
L 249.03686 209.84807 
L 248.665139 205.232529 
L 249.439558 205.852065 
L 251.9032 194.35507 
L 252.77055 194.54093 
" clip-path="url(#peac0136dbd)"/>
    <path d="M 50.736875 179.60448 
L 51.332834 179.60448 
L 50.889314 178.71744 
L 55.324514 180.048 
L 50.889314 181.37856 
L 51.332834 180.49152 
L 50.736875 180.49152 
L 50.736875 179.60448 
" clip-path="url(#peac0136dbd)"/>
    <path d="M 65.029306 179.617722 
L 65.502039 179.499539 
L 64.856623 178.746553 
L 69.482107 178.961692 
L 65.502039 181.328219 
L 65.717178 180.360094 
L 65.244444 180.478278 
L 65.029306 179.617722 
" clip-path="url(#peac0136dbd)"/>
    <path d="M 79.354694 179.683637 
L 79.719056 179.501456 
L 78.990331 178.954911 
L 83.180504 178.226186 
L 80.083419 181.141089 
L 80.083419 180.230181 
L 79.719056 180.412363 
L 79.354694 179.683637 
" clip-path="url(#peac0136dbd)"/>
    <path d="M 93.745102 179.792303 
L 94.000799 179.60053 
L 93.361556 179.280908 
L 96.493848 178.13027 
L 94.512194 180.815092 
L 94.384345 180.111924 
L 94.128648 180.303697 
L 93.745102 179.792303 
" clip-path="url(#peac0136dbd)"/>
    <path d="M 108.216865 179.92799 
L 108.336875 179.80798 
L 107.976845 179.68797 
L 109.536976 178.847899 
L 108.696905 180.40803 
L 108.576895 180.048 
L 108.456885 180.16801 
L 108.216865 179.92799 
" clip-path="url(#peac0136dbd)"/>
    <path d="M 122.45981 180.394331 
L 122.898274 180.461111 
L 123.175339 180.11478 
L 123.01394 179.701669 
L 122.575476 179.634889 
L 122.298411 179.98122 
L 122.45981 180.394331 
L 122.898274 180.461111 
" clip-path="url(#peac0136dbd)"/>
    <path d="M 137.397473 180.221732 
L 137.223741 180.482331 
L 137.91867 180.569197 
L 135.399553 182.653983 
L 136.35508 179.526803 
L 136.702544 180.134866 
L 136.876277 179.874268 
L 137.397473 180.221732 
" clip-path="url(#peac0136dbd)"/>
    <path d="M 151.921958 180.268048 
L 150.894934 182.065339 
L 151.885148 182.120351 
L 148.529423 185.31104 
L 149.574649 180.800066 
L 150.124768 181.625244 
L 151.151792 179.827952 
L 151.921958 180.268048 
" clip-path="url(#peac0136dbd)"/>
    <path d="M 166.333571 180.246348 
L 164.158946 184.595599 
L 165.150687 184.595599 
L 161.977116 187.967518 
L 162.770509 183.40551 
L 163.365553 184.198902 
L 165.540179 179.849652 
L 166.333571 180.246348 
" clip-path="url(#peac0136dbd)"/>
    <path d="M 180.742169 180.228131 
L 177.869738 186.6911 
L 178.860456 186.646068 
L 175.843269 190.158613 
L 176.428693 185.565285 
L 177.05915 186.330839 
L 179.931581 179.867869 
L 180.742169 180.228131 
" clip-path="url(#peac0136dbd)"/>
    <path d="M 195.148673 180.212719 
L 192.078569 187.887978 
L 193.066884 187.805619 
L 190.184299 191.429441 
L 190.596097 186.817304 
L 191.254973 187.55854 
L 194.325077 179.883281 
L 195.148673 180.212719 
" clip-path="url(#peac0136dbd)"/>
    <path d="M 209.553692 180.19957 
L 206.787382 187.806922 
L 207.772587 187.693244 
L 205.006436 191.406707 
L 205.271684 186.783825 
L 205.953748 187.503782 
L 208.720058 179.89643 
L 209.553692 180.19957 
" clip-path="url(#peac0136dbd)"/>
    <path d="M 223.957635 180.188253 
L 221.948112 186.216824 
L 222.929885 186.07657 
L 220.265071 189.863411 
L 220.405325 185.23505 
L 221.106591 185.936317 
L 223.116115 179.907747 
L 223.957635 180.188253 
" clip-path="url(#peac0136dbd)"/>
    <path d="M 238.360782 180.178433 
L 237.467269 183.082351 
L 238.445516 182.91931 
L 235.869465 186.767082 
L 235.902073 182.136712 
L 236.619455 182.821485 
L 237.512968 179.917567 
L 238.360782 180.178433 
" clip-path="url(#peac0136dbd)"/>
    <path d="M 252.562463 180.112454 
L 252.498009 180.338041 
L 253.013638 180.241361 
L 251.692339 182.303876 
L 251.660112 179.854639 
L 252.046834 180.209134 
L 252.111287 179.983546 
L 252.562463 180.112454 
" clip-path="url(#peac0136dbd)"/>
    <path d="M 50.736875 165.20448 
L 52.479743 165.20448 
L 52.036223 164.31744 
L 56.471423 165.648 
L 52.036223 166.97856 
L 52.479743 166.09152 
L 50.736875 166.09152 
L 50.736875 165.20448 
" clip-path="url(#peac0136dbd)"/>
    <path d="M 65.049894 165.213093 
L 66.399193 164.943233 
L 65.790323 164.1604 
L 70.400338 164.595307 
L 66.312211 166.769843 
L 66.573155 165.813047 
L 65.223856 166.082907 
L 65.049894 165.213093 
" clip-path="url(#peac0136dbd)"/>
    <path d="M 79.379771 165.255239 
L 79.772531 165.098135 
L 79.065562 164.469718 
L 83.464481 164.076958 
L 80.008188 166.826282 
L 80.08674 165.883656 
L 79.693979 166.040761 
L 79.379771 165.255239 
" clip-path="url(#peac0136dbd)"/>
    <path d="M 93.820088 165.453355 
L 94.014733 165.336567 
L 93.586513 165.064064 
L 95.883329 164.480127 
L 94.287237 166.231936 
L 94.248308 165.725858 
L 94.053662 165.842645 
L 93.820088 165.453355 
" clip-path="url(#peac0136dbd)"/>
    <path d="M 107.990544 165.925065 
L 108.403655 166.086464 
L 108.749986 165.809399 
L 108.683206 165.370935 
L 108.270095 165.209536 
L 107.923764 165.486601 
L 107.990544 165.925065 
L 108.403655 166.086464 
" clip-path="url(#peac0136dbd)"/>
    <path d="M 122.996595 165.90772 
L 122.736875 166.16744 
L 123.516035 166.42716 
L 120.139674 168.245201 
L 121.957715 164.86884 
L 122.217435 165.648 
L 122.477155 165.38828 
L 122.996595 165.90772 
" clip-path="url(#peac0136dbd)"/>
    <path d="M 137.477597 165.931935 
L 135.619814 168.161274 
L 136.585191 168.388422 
L 132.723681 170.943833 
L 134.540862 166.684814 
L 134.938371 167.593405 
L 136.796153 165.364065 
L 137.477597 165.931935 
" clip-path="url(#peac0136dbd)"/>
    <path d="M 151.897782 165.905791 
L 148.713787 170.363384 
L 149.693391 170.518059 
L 146.032763 173.353757 
L 147.527949 168.971314 
L 147.991972 169.847803 
L 151.175968 165.390209 
L 151.897782 165.905791 
" clip-path="url(#peac0136dbd)"/>
    <path d="M 166.312979 165.883065 
L 162.737845 171.60328 
L 163.725118 171.697306 
L 160.246154 174.753153 
L 161.468493 170.286915 
L 161.985636 171.13315 
L 165.560771 165.412935 
L 166.312979 165.883065 
" clip-path="url(#peac0136dbd)"/>
    <path d="M 180.724581 165.863392 
L 177.720753 171.270283 
L 178.711558 171.313362 
L 175.394516 174.544247 
L 176.38532 170.021008 
L 176.94534 170.839499 
L 179.949169 165.432608 
L 180.724581 165.863392 
" clip-path="url(#peac0136dbd)"/>
    <path d="M 195.133571 165.846348 
L 193.536722 169.040046 
L 194.528463 169.040046 
L 191.354892 172.411965 
L 192.148285 167.849957 
L 192.74333 168.64335 
L 194.340179 165.449652 
L 195.133571 165.846348 
" clip-path="url(#peac0136dbd)"/>
    <path d="M 209.415385 165.774596 
L 209.28879 166.053106 
L 209.972406 166.027787 
L 207.870919 168.433103 
L 208.301344 165.268213 
L 208.731769 165.799915 
L 208.858365 165.521404 
L 209.415385 165.774596 
" clip-path="url(#peac0136dbd)"/>
    <path d="M 223.28294 165.542194 
L 223.388746 165.288258 
L 222.775069 165.330581 
L 224.594939 163.108646 
L 224.298681 165.965419 
L 223.896617 165.499871 
L 223.79081 165.753806 
L 223.28294 165.542194 
" clip-path="url(#peac0136dbd)"/>
    <path d="M 237.522918 165.488786 
L 239.298235 160.87296 
L 238.311106 160.968489 
L 241.145122 157.306558 
L 240.79485 161.923775 
L 240.12615 161.191389 
L 238.350832 165.807214 
L 237.522918 165.488786 
" clip-path="url(#peac0136dbd)"/>
    <path d="M 251.919194 165.498828 
L 255.40797 155.730253 
L 254.423436 155.84959 
L 257.168199 152.120292 
L 256.929524 156.744622 
L 256.243333 156.028597 
L 252.754556 165.797172 
L 251.919194 165.498828 
" clip-path="url(#peac0136dbd)"/>
    <path d="M 50.736875 150.80448 
L 53.626653 150.80448 
L 53.183133 149.91744 
L 57.618333 151.248 
L 53.183133 152.57856 
L 53.626653 151.69152 
L 50.736875 151.69152 
L 50.736875 150.80448 
" clip-path="url(#peac0136dbd)"/>
    <path d="M 65.063961 150.810515 
L 67.198989 150.454677 
L 66.615675 149.65262 
L 71.209272 150.235934 
L 67.053161 152.277532 
L 67.344818 151.329647 
L 65.209789 151.685485 
L 65.063961 150.810515 
" clip-path="url(#peac0136dbd)"/>
    <path d="M 79.409026 150.864454 
L 79.792572 150.736605 
L 79.153329 150.097362 
L 83.372335 149.969513 
L 79.920421 152.398638 
L 80.04827 151.503697 
L 79.664724 151.631546 
L 79.409026 150.864454 
" clip-path="url(#peac0136dbd)"/>
    <path d="M 94.333571 151.049652 
L 93.963449 150.805277 
L 93.566752 151.003625 
L 93.540179 151.446348 
L 93.910301 151.690723 
L 94.306998 151.492375 
L 94.333571 151.049652 
L 93.963449 150.805277 
" clip-path="url(#peac0136dbd)"/>
    <path d="M 108.510607 151.508598 
L 108.250009 151.682331 
L 108.858072 152.029795 
L 105.730892 152.985322 
L 107.815678 150.466205 
L 107.902544 151.161134 
L 108.163143 150.987402 
L 108.510607 151.508598 
" clip-path="url(#peac0136dbd)"/>
    <path d="M 123.02081 151.588722 
L 120.79147 153.446504 
L 121.700061 153.844013 
L 117.441042 155.661194 
L 119.996453 151.799684 
L 120.223601 152.765061 
L 122.45294 150.907278 
L 123.02081 151.588722 
" clip-path="url(#peac0136dbd)"/>
    <path d="M 137.450491 151.561616 
L 133.532626 155.479481 
L 134.473474 155.793097 
L 130.396466 157.988409 
L 132.591778 153.911401 
L 132.905394 154.852249 
L 136.823259 150.934384 
L 137.450491 151.561616 
" clip-path="url(#peac0136dbd)"/>
    <path d="M 151.87362 151.536639 
L 147.871341 156.205964 
L 148.833471 156.446497 
L 144.936845 158.948035 
L 146.812999 154.714663 
L 147.197851 155.628687 
L 151.20013 150.959361 
L 151.87362 151.536639 
" clip-path="url(#peac0136dbd)"/>
    <path d="M 166.291691 151.514112 
L 163.778994 154.864375 
L 164.754738 155.041783 
L 161.02917 157.791607 
L 162.625842 153.445111 
L 163.069362 154.332151 
L 165.582059 150.981888 
L 166.291691 151.514112 
" clip-path="url(#peac0136dbd)"/>
    <path d="M 180.646081 151.454137 
L 180.439944 151.763343 
L 181.264492 151.866412 
L 178.275503 154.340058 
L 179.409258 150.629588 
L 179.821532 151.351069 
L 180.027669 151.041863 
L 180.646081 151.454137 
" clip-path="url(#peac0136dbd)"/>
    <path d="M 194.525262 151.121032 
L 194.65223 150.909419 
L 194.102036 150.867097 
L 196.006552 149.131872 
L 195.371714 151.628903 
L 195.075456 151.163355 
L 194.948488 151.374968 
L 194.525262 151.121032 
" clip-path="url(#peac0136dbd)"/>
    <path d="M 208.747511 151.03562 
L 211.138258 146.652584 
L 210.147149 146.617187 
L 213.439046 143.360686 
L 212.483334 147.89147 
L 211.916986 147.077345 
L 209.526239 151.46038 
L 208.747511 151.03562 
" clip-path="url(#peac0136dbd)"/>
    <path d="M 223.140179 151.049652 
L 227.678088 141.973832 
L 226.686348 141.973832 
L 229.859918 138.601913 
L 229.066526 143.163921 
L 228.471481 142.370528 
L 223.933571 151.446348 
L 223.140179 151.049652 
" clip-path="url(#peac0136dbd)"/>
    <path d="M 237.534177 151.062139 
L 242.718532 139.82937 
L 241.727275 139.860347 
L 244.793976 136.390948 
L 244.143464 140.975511 
L 243.523928 140.201092 
L 238.339573 151.433861 
L 237.534177 151.062139 
" clip-path="url(#peac0136dbd)"/>
    <path d="M 251.929216 151.073289 
L 256.135581 141.258438 
L 255.145551 141.316675 
L 258.11564 137.764216 
L 257.591506 142.364941 
L 256.950899 141.60786 
L 252.744534 151.422711 
L 251.929216 151.073289 
" clip-path="url(#peac0136dbd)"/>
    <path d="M 50.736875 136.40448 
L 54.773563 136.40448 
L 54.330043 135.51744 
L 58.765243 136.848 
L 54.330043 138.17856 
L 54.773563 137.29152 
L 50.736875 137.29152 
L 50.736875 136.40448 
" clip-path="url(#peac0136dbd)"/>
    <path d="M 65.074152 136.408938 
L 67.875485 136.008747 
L 67.310976 135.193346 
L 71.88977 135.883301 
L 67.687315 137.82772 
L 68.000931 136.886872 
L 65.199598 137.287062 
L 65.074152 136.408938 
" clip-path="url(#peac0136dbd)"/>
    <path d="M 79.441682 136.514825 
L 79.774857 136.419633 
L 79.251297 135.848476 
L 82.868621 135.896073 
L 79.822453 137.847524 
L 79.965242 137.085982 
L 79.632068 137.181175 
L 79.441682 136.514825 
" clip-path="url(#peac0136dbd)"/>
    <path d="M 93.986077 136.962804 
L 93.871273 137.012005 
L 94.08448 137.192411 
L 92.788838 137.340016 
L 93.78927 136.503589 
L 93.77287 136.782398 
L 93.887673 136.733196 
L 93.986077 136.962804 
" clip-path="url(#peac0136dbd)"/>
    <path d="M 108.556923 137.233083 
L 106.759631 138.260107 
L 107.584809 138.810226 
L 103.073835 139.855452 
L 106.264524 136.499727 
L 106.319536 137.489941 
L 108.116827 136.462917 
L 108.556923 137.233083 
" clip-path="url(#peac0136dbd)"/>
    <path d="M 122.994666 137.208907 
L 118.537072 140.392903 
L 119.413561 140.856926 
L 115.031118 142.352112 
L 117.866816 138.691484 
L 118.021491 139.671088 
L 122.479084 136.487093 
L 122.994666 137.208907 
" clip-path="url(#peac0136dbd)"/>
    <path d="M 137.425514 137.184745 
L 132.756188 141.187024 
L 133.670212 141.571876 
L 129.43684 143.44803 
L 131.938378 139.551404 
L 132.178911 140.513534 
L 136.848236 136.511255 
L 137.425514 137.184745 
" clip-path="url(#peac0136dbd)"/>
    <path d="M 151.850491 137.161616 
L 149.425344 139.586763 
L 150.366192 139.900379 
L 146.289184 142.095691 
L 148.484496 138.018683 
L 148.798112 138.959531 
L 151.223259 136.534384 
L 151.850491 137.161616 
" clip-path="url(#peac0136dbd)"/>
    <path d="M 166.065782 136.960794 
L 165.952988 137.089701 
L 166.323597 137.186381 
L 164.808937 138.137072 
L 165.550153 136.509619 
L 165.695174 136.864113 
L 165.807968 136.735206 
L 166.065782 136.960794 
" clip-path="url(#peac0136dbd)"/>
    <path d="M 179.986782 136.575705 
L 180.886335 135.419136 
L 179.913853 135.22464 
L 183.687083 132.54059 
L 182.014414 136.858409 
L 181.586522 135.963726 
L 180.686968 137.120295 
L 179.986782 136.575705 
" clip-path="url(#peac0136dbd)"/>
    <path d="M 194.373529 136.593658 
L 198.848305 130.201121 
L 197.867271 130.055783 
L 201.500729 127.185352 
L 200.047346 131.581835 
L 199.574996 130.709805 
L 195.100221 137.102342 
L 194.373529 136.593658 
" clip-path="url(#peac0136dbd)"/>
    <path d="M 208.762694 136.609885 
L 214.648001 127.361546 
L 213.661525 127.259496 
L 217.165217 124.232034 
L 215.906609 128.688187 
L 215.396363 127.837776 
L 209.511056 137.086115 
L 208.762694 136.609885 
" clip-path="url(#peac0136dbd)"/>
    <path d="M 223.153772 136.624523 
L 227.884372 128.514923 
L 226.894689 128.451072 
L 230.278767 125.290471 
L 229.193308 129.791934 
L 228.650578 128.961877 
L 223.919978 137.071477 
L 223.153772 136.624523 
" clip-path="url(#peac0136dbd)"/>
    <path d="M 237.546368 136.637727 
L 238.967177 133.999084 
L 237.975891 133.969045 
L 241.250138 130.694798 
L 240.31893 135.230681 
L 239.74819 134.419629 
L 238.327382 137.058273 
L 237.546368 136.637727 
" clip-path="url(#peac0136dbd)"/>
    <path d="M 252.570501 136.964813 
L 252.453688 137.198438 
L 253.037752 137.198438 
L 251.168747 139.184256 
L 251.635998 136.497562 
L 251.986437 136.964813 
L 252.103249 136.731187 
L 252.570501 136.964813 
" clip-path="url(#peac0136dbd)"/>
    <path d="M 50.736875 122.00448 
L 55.920472 122.00448 
L 55.476952 121.11744 
L 59.912152 122.448 
L 55.476952 123.77856 
L 55.920472 122.89152 
L 50.736875 122.89152 
L 50.736875 122.00448 
" clip-path="url(#peac0136dbd)"/>
    <path d="M 65.081863 122.007905 
L 68.408265 121.592105 
L 67.858146 120.766926 
L 72.424132 121.537093 
L 68.188217 123.407497 
L 68.518288 122.472295 
L 65.191887 122.888095 
L 65.081863 122.007905 
" clip-path="url(#peac0136dbd)"/>
    <path d="M 79.47687 122.20798 
L 79.71689 122.147975 
L 79.35686 121.727939 
L 81.937077 121.847949 
L 79.71689 123.168061 
L 79.8369 122.628015 
L 79.59688 122.68802 
L 79.47687 122.20798 
" clip-path="url(#peac0136dbd)"/>
    <path d="M 94.067174 122.795464 
L 93.71971 122.925764 
L 94.327772 123.490393 
L 90.462231 123.750992 
L 93.545978 121.405607 
L 93.459111 122.230835 
L 93.806576 122.100536 
L 94.067174 122.795464 
" clip-path="url(#peac0136dbd)"/>
    <path d="M 108.535223 122.844696 
L 104.185973 125.019322 
L 104.979365 125.614366 
L 100.417357 126.407759 
L 103.789276 123.234188 
L 103.789276 124.225929 
L 108.138527 122.051304 
L 108.535223 122.844696 
" clip-path="url(#peac0136dbd)"/>
    <path d="M 122.97194 122.824104 
L 117.251725 126.399239 
L 118.09796 126.916382 
L 113.631722 128.138721 
L 116.687569 124.659757 
L 116.781595 125.64703 
L 122.50181 122.071896 
L 122.97194 122.824104 
" clip-path="url(#peac0136dbd)"/>
    <path d="M 137.402987 122.802816 
L 134.052724 125.315513 
L 134.939764 125.759033 
L 130.593268 127.355705 
L 133.343092 123.630137 
L 133.5205 124.605881 
L 136.870763 122.093184 
L 137.402987 122.802816 
" clip-path="url(#peac0136dbd)"/>
    <path d="M 151.649669 122.576907 
L 151.520762 122.689701 
L 151.875256 122.834722 
L 150.247803 123.575938 
L 151.198494 122.061278 
L 151.295174 122.431887 
L 151.424081 122.319093 
L 151.649669 122.576907 
" clip-path="url(#peac0136dbd)"/>
    <path d="M 165.623259 122.134384 
L 167.296689 120.460954 
L 166.355841 120.147338 
L 170.432849 117.952026 
L 168.237537 122.029034 
L 167.923921 121.088186 
L 166.250491 122.761616 
L 165.623259 122.134384 
" clip-path="url(#peac0136dbd)"/>
    <path d="M 180.005384 122.153341 
L 185.784181 115.652195 
L 184.82654 115.394369 
L 188.7676 112.963435 
L 186.815486 117.162321 
L 186.447163 116.241512 
L 180.668366 122.742659 
L 180.005384 122.153341 
" clip-path="url(#peac0136dbd)"/>
    <path d="M 194.390544 122.170935 
L 200.792813 114.168099 
L 199.823086 113.960301 
L 203.632727 111.328186 
L 201.901072 115.622689 
L 201.485475 114.722229 
L 195.083206 122.725065 
L 194.390544 122.170935 
" clip-path="url(#peac0136dbd)"/>
    <path d="M 208.778184 122.187134 
L 212.130326 117.57794 
L 211.152079 117.414898 
L 214.83681 114.61059 
L 213.304222 118.980094 
L 212.847707 118.099671 
L 209.495566 122.708866 
L 208.778184 122.187134 
" clip-path="url(#peac0136dbd)"/>
    <path d="M 223.782896 122.078969 
L 223.340295 122.050424 
L 223.094275 122.419455 
L 223.290854 122.817031 
L 223.733455 122.845576 
L 223.979475 122.476545 
L 223.782896 122.078969 
L 223.340295 122.050424 
" clip-path="url(#peac0136dbd)"/>
    <path d="M 238.314602 122.680448 
L 234.95805 128.134845 
L 235.945953 128.222013 
L 232.488294 131.301945 
L 233.679588 126.827327 
L 234.202595 127.669949 
L 237.559148 122.215552 
L 238.314602 122.680448 
" clip-path="url(#peac0136dbd)"/>
    <path d="M 252.721958 122.668048 
L 245.889323 134.62516 
L 246.879537 134.680172 
L 243.523812 137.870861 
L 244.569037 133.359886 
L 245.119156 134.185065 
L 251.951792 122.227952 
L 252.721958 122.668048 
" clip-path="url(#peac0136dbd)"/>
    <path d="M 50.736875 107.60448 
L 57.067382 107.60448 
L 56.623862 106.71744 
L 61.059062 108.048 
L 56.623862 109.37856 
L 57.067382 108.49152 
L 50.736875 108.49152 
L 50.736875 107.60448 
" clip-path="url(#peac0136dbd)"/>
    <path d="M 65.087896 107.607193 
L 68.780065 107.196952 
L 68.2413 106.364316 
L 72.796309 107.196952 
L 68.535172 109.00916 
L 68.878022 108.078566 
L 65.185854 108.488807 
L 65.087896 107.607193 
" clip-path="url(#peac0136dbd)"/>
    <path d="M 79.513654 107.943503 
L 79.61815 107.920282 
L 79.467211 107.73451 
L 80.58184 107.815786 
L 79.606539 108.36149 
L 79.664593 108.129275 
L 79.560096 108.152497 
L 79.513654 107.943503 
" clip-path="url(#peac0136dbd)"/>
    <path d="M 94.077128 108.46876 
L 91.755338 109.24269 
L 92.456604 109.943957 
L 87.828244 110.08421 
L 91.615084 107.419397 
L 91.474831 108.40117 
L 93.796622 107.62724 
L 94.077128 108.46876 
" clip-path="url(#peac0136dbd)"/>
    <path d="M 108.517006 108.453294 
L 102.054036 111.325725 
L 102.81959 111.956182 
L 98.226262 112.541606 
L 101.738807 109.524419 
L 101.693775 110.515137 
L 108.156744 107.642706 
L 108.517006 108.453294 
" clip-path="url(#peac0136dbd)"/>
    <path d="M 122.952267 108.435706 
L 117.545376 111.439535 
L 118.363867 111.999555 
L 113.840628 112.990359 
L 117.071513 109.673317 
L 117.114592 110.664122 
L 122.521483 107.660294 
L 122.952267 108.435706 
" clip-path="url(#peac0136dbd)"/>
    <path d="M 137.343012 108.357206 
L 137.033806 108.563343 
L 137.755287 108.975617 
L 134.044817 110.109372 
L 136.518463 107.120383 
L 136.621532 107.944931 
L 136.930738 107.738794 
L 137.343012 108.357206 
" clip-path="url(#peac0136dbd)"/>
    <path d="M 151.26458 107.697907 
L 152.421149 106.798353 
L 151.526466 106.370461 
L 155.844285 104.697792 
L 153.160235 108.471022 
L 152.965739 107.49854 
L 151.80917 108.398093 
L 151.26458 107.697907 
" clip-path="url(#peac0136dbd)"/>
    <path d="M 165.642216 107.716509 
L 172.143363 101.937712 
L 171.222554 101.569389 
L 175.42144 99.617275 
L 172.990506 103.558335 
L 172.73268 102.600694 
L 166.231534 108.379491 
L 165.642216 107.716509 
" clip-path="url(#peac0136dbd)"/>
    <path d="M 180.023259 107.734384 
L 186.969082 100.788561 
L 186.028234 100.474945 
L 190.105242 98.279633 
L 187.90993 102.356641 
L 187.596314 101.415793 
L 180.650491 108.361616 
L 180.023259 107.734384 
" clip-path="url(#peac0136dbd)"/>
    <path d="M 194.407209 107.751301 
L 196.749311 105.148965 
L 195.79328 104.885233 
L 199.74927 102.478672 
L 197.771275 106.665428 
L 197.408643 105.742364 
L 195.066541 108.344699 
L 194.407209 107.751301 
" clip-path="url(#peac0136dbd)"/>
    <path d="M 209.421605 108.280961 
L 209.188644 108.565692 
L 209.991066 108.746884 
L 206.807263 110.895304 
L 208.282684 107.349116 
L 208.619183 108.099769 
L 208.852145 107.815039 
L 209.421605 108.280961 
" clip-path="url(#peac0136dbd)"/>
    <path d="M 223.891691 108.314112 
L 217.816992 116.413711 
L 218.792736 116.591119 
L 215.067168 119.340943 
L 216.66384 114.994447 
L 217.10736 115.881487 
L 223.182059 107.781888 
L 223.891691 108.314112 
" clip-path="url(#peac0136dbd)"/>
    <path d="M 238.301534 108.300456 
L 230.333595 119.809701 
L 231.315368 119.949954 
L 227.696832 122.839173 
L 229.127416 118.435218 
L 229.604277 119.304789 
L 237.572216 107.795544 
L 238.301534 108.300456 
" clip-path="url(#peac0136dbd)"/>
    <path d="M 252.709954 108.287837 
L 248.141232 115.394739 
L 249.127227 115.501333 
L 245.609621 118.512617 
L 246.888751 114.062312 
L 247.395073 114.915065 
L 251.963796 107.808163 
L 252.709954 108.287837 
" clip-path="url(#peac0136dbd)"/>
    <path d="M 50.736875 93.20448 
L 58.214292 93.20448 
L 57.770772 92.31744 
L 62.205972 93.648 
L 57.770772 94.97856 
L 58.214292 94.09152 
L 50.736875 94.09152 
L 50.736875 93.20448 
" clip-path="url(#peac0136dbd)"/>
    <path d="M 65.092743 93.206681 
L 68.976085 92.818347 
L 68.446503 91.979841 
L 72.992087 92.862479 
L 68.711294 94.627754 
L 69.064349 93.700985 
L 65.181007 94.089319 
L 65.092743 93.206681 
" clip-path="url(#peac0136dbd)"/>
    <path d="M 79.101968 93.734981 
L 79.39475 94.068131 
L 79.829657 93.98115 
L 79.971782 93.561019 
L 79.679 93.227869 
L 79.244093 93.31485 
L 79.101968 93.734981 
L 79.39475 94.068131 
" clip-path="url(#peac0136dbd)"/>
    <path d="M 94.06432 94.072815 
L 89.061267 95.573731 
L 89.740972 96.295916 
L 85.110487 96.295916 
L 88.976304 93.747026 
L 88.806378 94.724101 
L 93.80943 93.223185 
L 94.06432 94.072815 
" clip-path="url(#peac0136dbd)"/>
    <path d="M 108.501594 94.059798 
L 100.826335 97.129902 
L 101.567571 97.788778 
L 96.955434 98.200576 
L 100.579256 95.317991 
L 100.496897 96.306306 
L 108.172156 93.236202 
L 108.501594 94.059798 
" clip-path="url(#peac0136dbd)"/>
    <path d="M 122.935223 94.044696 
L 119.741525 95.641545 
L 120.534918 96.23659 
L 115.97291 97.029983 
L 119.344829 93.856412 
L 119.344829 94.848153 
L 122.538527 93.251304 
L 122.935223 94.044696 
" clip-path="url(#peac0136dbd)"/>
    <path d="M 137.009907 93.436387 
L 137.22152 93.309419 
L 136.755972 93.013161 
L 139.253003 92.378323 
L 137.517778 94.282839 
L 137.475456 93.732645 
L 137.263843 93.859613 
L 137.009907 93.436387 
" clip-path="url(#peac0136dbd)"/>
    <path d="M 151.282533 93.284654 
L 157.67507 88.809879 
L 156.80304 88.337529 
L 161.199523 86.884146 
L 158.329092 90.517604 
L 158.183754 89.53657 
L 151.791217 94.011346 
L 151.282533 93.284654 
" clip-path="url(#peac0136dbd)"/>
    <path d="M 165.65981 93.301669 
L 173.662646 86.8994 
L 172.762186 86.483803 
L 177.056689 84.752148 
L 174.424574 88.561789 
L 174.216776 87.592062 
L 166.21394 93.994331 
L 165.65981 93.301669 
" clip-path="url(#peac0136dbd)"/>
    <path d="M 180.040176 93.318334 
L 182.642511 90.976232 
L 181.719447 90.6136 
L 185.906203 88.635605 
L 183.499642 92.591595 
L 183.23591 91.635564 
L 180.633574 93.977666 
L 180.040176 93.318334 
" clip-path="url(#peac0136dbd)"/>
    <path d="M 195.050491 93.961616 
L 194.382113 94.629994 
L 195.322961 94.94361 
L 191.245953 97.138922 
L 193.441265 93.061914 
L 193.754881 94.002762 
L 194.423259 93.334384 
L 195.050491 93.961616 
" clip-path="url(#peac0136dbd)"/>
    <path d="M 209.465053 93.946344 
L 201.798938 102.379071 
L 202.753638 102.64758 
L 198.785665 105.034331 
L 200.784569 100.857517 
L 201.142581 101.782383 
L 208.808697 93.349656 
L 209.465053 93.946344 
" clip-path="url(#peac0136dbd)"/>
    <path d="M 223.877597 93.931935 
L 215.744792 103.6913 
L 216.71017 103.918448 
L 212.848659 106.473859 
L 214.665841 102.21484 
L 215.063349 103.123431 
L 223.196153 93.364065 
L 223.877597 93.931935 
" clip-path="url(#peac0136dbd)"/>
    <path d="M 238.28842 93.918419 
L 236.43263 96.330946 
L 237.406138 96.520239 
L 233.647315 99.224428 
L 235.29687 94.897726 
L 235.72954 95.790108 
L 237.58533 93.377581 
L 238.28842 93.918419 
" clip-path="url(#peac0136dbd)"/>
    <path d="M 251.975968 93.390209 
L 254.468206 89.901076 
L 253.488601 89.746401 
L 257.14923 86.910703 
L 255.654044 91.293146 
L 255.19002 90.416657 
L 252.697782 93.905791 
L 251.975968 93.390209 
" clip-path="url(#peac0136dbd)"/>
    <path d="M 50.736875 78.80448 
L 59.361201 78.80448 
L 58.917681 77.91744 
L 63.352881 79.248 
L 58.917681 80.57856 
L 59.361201 79.69152 
L 50.736875 79.69152 
L 50.736875 78.80448 
" clip-path="url(#peac0136dbd)"/>
    <path d="M 65.096721 78.806301 
L 68.983821 78.452929 
L 68.461813 77.609686 
L 72.999262 78.533238 
L 68.70274 80.259877 
L 69.06413 79.336326 
L 65.177029 79.689699 
L 65.096721 78.806301 
" clip-path="url(#peac0136dbd)"/>
    <path d="M 79.588079 79.529621 
L 79.306458 79.580825 
L 79.690487 80.092864 
L 76.720663 79.760039 
L 79.383263 78.403136 
L 79.20405 79.017583 
L 79.485671 78.966379 
L 79.588079 79.529621 
" clip-path="url(#peac0136dbd)"/>
    <path d="M 94.053573 79.675892 
L 86.532046 81.727217 
L 87.193334 82.466304 
L 82.56432 82.349606 
L 86.493147 79.898951 
L 86.298651 80.871433 
L 93.820177 78.820108 
L 94.053573 79.675892 
" clip-path="url(#peac0136dbd)"/>
    <path d="M 108.488445 79.664817 
L 100.881093 82.431127 
L 101.60105 83.113191 
L 96.978168 83.378439 
L 100.691631 80.612288 
L 100.577953 81.597493 
L 108.185305 78.831183 
L 108.488445 79.664817 
" clip-path="url(#peac0136dbd)"/>
    <path d="M 122.863471 79.52651 
L 122.58496 79.653106 
L 123.116662 80.083531 
L 119.951772 80.513956 
L 122.357088 78.412469 
L 122.331769 79.096085 
L 122.610279 78.96949 
L 122.863471 79.52651 
" clip-path="url(#peac0136dbd)"/>
    <path d="M 136.924495 78.858636 
L 141.30753 76.467889 
L 140.493405 75.901541 
L 145.024189 74.945829 
L 141.767688 78.237726 
L 141.732291 77.246617 
L 137.349255 79.637364 
L 136.924495 78.858636 
" clip-path="url(#peac0136dbd)"/>
    <path d="M 151.29876 78.873819 
L 160.547099 72.988512 
L 159.696688 72.478266 
L 164.152841 71.219658 
L 161.125379 74.72335 
L 161.023329 73.736874 
L 151.77499 79.622181 
L 151.29876 78.873819 
" clip-path="url(#peac0136dbd)"/>
    <path d="M 165.676009 78.889309 
L 170.285204 75.537168 
L 169.404781 75.080653 
L 173.774285 73.548065 
L 170.969977 77.232796 
L 170.806935 76.254549 
L 166.197741 79.606691 
L 165.676009 78.889309 
" clip-path="url(#peac0136dbd)"/>
    <path d="M 180.569836 79.53273 
L 180.285106 79.765692 
L 181.035759 80.102191 
L 177.489571 81.577612 
L 179.637991 78.393809 
L 179.819183 79.196231 
L 180.103914 78.96327 
L 180.569836 79.53273 
" clip-path="url(#peac0136dbd)"/>
    <path d="M 195.035219 79.576178 
L 186.602492 87.242294 
L 187.527358 87.600306 
L 183.350544 89.59921 
L 185.737295 85.631237 
L 186.005804 86.585937 
L 194.438531 78.919822 
L 195.035219 79.576178 
" clip-path="url(#peac0136dbd)"/>
    <path d="M 209.450491 79.561616 
L 200.92825 88.083857 
L 201.869098 88.397473 
L 197.79209 90.592785 
L 199.987402 86.515777 
L 200.301018 87.456625 
L 208.823259 78.934384 
L 209.450491 79.561616 
" clip-path="url(#peac0136dbd)"/>
    <path d="M 223.837309 79.523398 
L 223.561911 79.823831 
L 224.438176 80.074193 
L 220.7829 82.252337 
L 222.635574 78.421807 
L 222.961044 79.273036 
L 223.236441 78.972602 
L 223.837309 79.523398 
" clip-path="url(#peac0136dbd)"/>
    <path d="M 237.598298 78.961512 
L 242.932094 72.657935 
L 241.968451 72.423535 
L 245.849065 69.89723 
L 243.999914 74.142465 
L 243.609248 73.230912 
L 238.275452 79.534488 
L 237.598298 78.961512 
" clip-path="url(#peac0136dbd)"/>
    <path d="M 251.988127 78.973984 
L 262.137826 66.056185 
L 261.166314 65.856901 
L 264.95272 63.19147 
L 263.258801 67.500998 
L 262.835322 66.604218 
L 252.685623 79.522016 
L 251.988127 78.973984 
" clip-path="url(#peac0136dbd)"/>
    <path d="M 50.736875 64.40448 
L 60.508111 64.40448 
L 60.064591 63.51744 
L 64.499791 64.848 
L 60.064591 66.17856 
L 60.508111 65.29152 
L 50.736875 65.29152 
L 50.736875 64.40448 
" clip-path="url(#peac0136dbd)"/>
    <path d="M 65.100043 64.406012 
L 68.79307 64.09826 
L 68.277417 63.251116 
L 72.807794 64.208757 
L 68.498411 65.903044 
L 68.866735 64.982236 
L 65.173707 65.289988 
L 65.100043 64.406012 
" clip-path="url(#peac0136dbd)"/>
    <path d="M 79.609789 65.285485 
L 78.335192 65.497918 
L 78.918506 66.299975 
L 74.324909 65.716661 
L 78.48102 63.675062 
L 78.189363 64.622947 
L 79.463961 64.410515 
L 79.609789 65.285485 
" clip-path="url(#peac0136dbd)"/>
    <path d="M 94.044444 65.278278 
L 84.436125 67.680357 
L 85.081542 68.433343 
L 80.456057 68.218204 
L 84.436125 65.851678 
L 84.220986 66.819802 
L 93.829306 64.417722 
L 94.044444 65.278278 
" clip-path="url(#peac0136dbd)"/>
    <path d="M 108.477128 65.26876 
L 102.448558 67.278284 
L 103.149825 67.97955 
L 98.521464 68.119804 
L 102.308305 65.45499 
L 102.168051 66.436763 
L 108.196622 64.42724 
L 108.477128 65.26876 
" clip-path="url(#peac0136dbd)"/>
    <path d="M 122.631069 64.594065 
L 122.885004 64.488258 
L 122.419456 64.086194 
L 125.276229 63.789936 
L 123.054294 65.609806 
L 123.096617 64.996129 
L 122.842681 65.101935 
L 122.631069 64.594065 
" clip-path="url(#peac0136dbd)"/>
    <path d="M 136.938527 64.451304 
L 146.014347 59.913394 
L 145.220954 59.318349 
L 149.782962 58.524957 
L 146.411043 61.698527 
L 146.411043 60.706787 
L 137.335223 65.244696 
L 136.938527 64.451304 
" clip-path="url(#peac0136dbd)"/>
    <path d="M 151.313398 64.464897 
L 159.422998 59.734297 
L 158.592941 59.191567 
L 163.094404 58.106108 
L 159.933803 61.490186 
L 159.869952 60.500503 
L 151.760352 65.231103 
L 151.313398 64.464897 
" clip-path="url(#peac0136dbd)"/>
    <path d="M 166.305906 64.601979 
L 165.90833 64.4054 
L 165.539299 64.65142 
L 165.567844 65.094021 
L 165.96542 65.2906 
L 166.334451 65.04458 
L 166.305906 64.601979 
L 165.90833 64.4054 
" clip-path="url(#peac0136dbd)"/>
    <path d="M 180.602987 65.202816 
L 172.503388 71.277515 
L 173.390428 71.721035 
L 169.043932 73.317707 
L 171.793756 69.592139 
L 171.971164 70.567883 
L 180.070763 64.493184 
L 180.602987 65.202816 
" clip-path="url(#peac0136dbd)"/>
    <path d="M 195.02081 65.188722 
L 185.261444 73.321526 
L 186.170035 73.719034 
L 181.911016 75.536216 
L 184.466427 71.674705 
L 184.693575 72.640083 
L 194.45294 64.507278 
L 195.02081 65.188722 
" clip-path="url(#peac0136dbd)"/>
    <path d="M 209.412273 65.148434 
L 209.111839 65.423831 
L 209.963068 65.749301 
L 206.132538 67.601975 
L 208.310682 63.946699 
L 208.561044 64.822964 
L 208.861477 64.547566 
L 209.412273 65.148434 
" clip-path="url(#peac0136dbd)"/>
    <path d="M 223.223259 64.534384 
L 229.877571 57.880072 
L 228.936723 57.566456 
L 233.013731 55.371144 
L 230.818419 59.448152 
L 230.504803 58.507304 
L 223.850491 65.161616 
L 223.223259 64.534384 
" clip-path="url(#peac0136dbd)"/>
    <path d="M 237.610975 64.547169 
L 248.471903 52.781164 
L 247.519272 52.505402 
L 251.50528 50.148894 
L 249.474673 54.310387 
L 249.123703 53.382825 
L 238.262775 65.148831 
L 237.610975 64.547169 
" clip-path="url(#peac0136dbd)"/>
    <path d="M 252.00013 64.559361 
L 255.050536 61.000554 
L 254.088406 60.760021 
L 257.985032 58.258483 
L 256.108879 62.491855 
L 255.724027 61.577832 
L 252.67362 65.136639 
L 252.00013 64.559361 
" clip-path="url(#peac0136dbd)"/>
    <path d="M 50.736875 50.00448 
L 61.655021 50.00448 
L 61.211501 49.11744 
L 65.646701 50.448 
L 61.211501 51.77856 
L 61.655021 50.89152 
L 50.736875 50.89152 
L 50.736875 50.00448 
" clip-path="url(#peac0136dbd)"/>
    <path d="M 65.102859 50.005786 
L 68.396002 49.752468 
L 67.885755 48.902057 
L 72.40994 49.888533 
L 68.089854 51.555339 
L 68.464034 50.636895 
L 65.170891 50.890214 
L 65.102859 50.005786 
" clip-path="url(#peac0136dbd)"/>
    <path d="M 79.604315 50.886363 
L 75.735407 51.481579 
L 76.308651 52.290864 
L 71.722703 51.65018 
L 75.904008 49.660688 
L 75.600527 50.604854 
L 79.469435 50.009637 
L 79.604315 50.886363 
" clip-path="url(#peac0136dbd)"/>
    <path d="M 94.036605 50.880162 
L 83.029436 53.420278 
L 83.661058 54.184872 
L 79.040249 53.885683 
L 83.062679 51.5919 
L 82.829977 52.555954 
L 93.837145 50.015838 
L 94.036605 50.880162 
" clip-path="url(#peac0136dbd)"/>
    <path d="M 108.467308 50.871907 
L 105.56339 51.76542 
L 106.248163 52.482802 
L 101.617793 52.51541 
L 105.465565 49.939359 
L 105.302524 50.917606 
L 108.206442 50.024093 
L 108.467308 50.871907 
" clip-path="url(#peac0136dbd)"/>
    <path d="M 122.577661 50.034043 
L 127.193486 48.258725 
L 126.4611 47.590025 
L 131.078317 47.239753 
L 127.416386 50.073769 
L 127.511915 49.08664 
L 122.896089 50.861957 
L 122.577661 50.034043 
" clip-path="url(#peac0136dbd)"/>
    <path d="M 136.951014 50.045302 
L 148.183783 44.860947 
L 147.409364 44.241411 
L 151.993927 43.590899 
L 148.524528 46.6576 
L 148.555505 45.666343 
L 137.322736 50.850698 
L 136.951014 50.045302 
" clip-path="url(#peac0136dbd)"/>
    <path d="M 151.326602 50.057493 
L 153.965246 48.636685 
L 153.154194 48.065945 
L 157.690077 47.134737 
L 154.41583 50.408984 
L 154.385791 49.417698 
L 151.747148 50.838507 
L 151.326602 50.057493 
" clip-path="url(#peac0136dbd)"/>
    <path d="M 166.169323 50.825727 
L 160.714926 54.18228 
L 161.557548 54.705287 
L 157.08293 55.896581 
L 160.162862 52.438922 
L 160.25003 53.426825 
L 165.704427 50.070273 
L 166.169323 50.825727 
" clip-path="url(#peac0136dbd)"/>
    <path d="M 180.589331 50.812659 
L 169.080086 58.780598 
L 169.949657 59.257459 
L 165.545702 60.688043 
L 168.434921 57.069507 
L 168.575174 58.05128 
L 180.084419 50.083341 
L 180.589331 50.812659 
" clip-path="url(#peac0136dbd)"/>
    <path d="M 195.007294 50.799545 
L 192.594767 52.655335 
L 193.487149 53.088005 
L 189.160447 54.73756 
L 191.864636 50.978737 
L 192.053929 51.952245 
L 194.466456 50.096455 
L 195.007294 50.799545 
" clip-path="url(#peac0136dbd)"/>
    <path d="M 208.850387 50.109423 
L 215.153963 44.775627 
L 214.24241 44.384961 
L 218.487645 42.53581 
L 215.96134 46.416424 
L 215.72694 45.452781 
L 209.423363 50.786577 
L 208.850387 50.109423 
" clip-path="url(#peac0136dbd)"/>
    <path d="M 223.236044 50.1221 
L 235.00205 39.261172 
L 234.074488 38.910202 
L 238.235981 36.879595 
L 235.879473 40.865603 
L 235.603711 39.912972 
L 223.837706 50.7739 
L 223.236044 50.1221 
" clip-path="url(#peac0136dbd)"/>
    <path d="M 237.623259 50.134384 
L 239.790496 47.967147 
L 238.849648 47.653531 
L 242.926656 45.458219 
L 240.731344 49.535227 
L 240.417728 48.594379 
L 238.250491 50.761616 
L 237.623259 50.134384 
" clip-path="url(#peac0136dbd)"/>
    <path d="M 252.661884 50.749794 
L 245.546986 58.411991 
L 246.498797 58.69057 
L 242.505835 61.035274 
L 244.548746 56.879808 
L 244.896969 57.808404 
L 252.011866 50.146206 
L 252.661884 50.749794 
" clip-path="url(#peac0136dbd)"/>
    <path d="M 50.736875 35.60448 
L 62.80193 35.60448 
L 62.35841 34.71744 
L 66.79361 36.048 
L 62.35841 37.37856 
L 62.80193 36.49152 
L 50.736875 36.49152 
L 50.736875 35.60448 
" clip-path="url(#peac0136dbd)"/>
    <path d="M 65.105276 35.605607 
L 67.787232 35.414039 
L 67.28164 34.560853 
L 71.800367 35.572036 
L 67.471237 37.21521 
L 67.850431 36.298825 
L 65.168474 36.490393 
L 65.105276 35.605607 
" clip-path="url(#peac0136dbd)"/>
    <path d="M 79.599598 36.487062 
L 73.025079 37.426279 
L 73.589588 38.241681 
L 69.010794 37.551726 
L 73.213249 35.607307 
L 72.899633 36.548155 
L 79.474152 35.608938 
L 79.599598 36.487062 
" clip-path="url(#peac0136dbd)"/>
    <path d="M 94.029805 36.481675 
L 82.53281 38.945317 
L 83.152346 39.719736 
L 78.536805 39.348015 
L 82.594763 37.117687 
L 82.346949 38.077967 
L 93.843945 35.614325 
L 94.029805 36.481675 
" clip-path="url(#peac0136dbd)"/>
    <path d="M 108.401329 36.273588 
L 108.175741 36.338041 
L 108.530236 36.724763 
L 106.080999 36.692536 
L 108.143514 35.371237 
L 108.046834 35.886866 
L 108.272421 35.822412 
L 108.401329 36.273588 
" clip-path="url(#peac0136dbd)"/>
    <path d="M 122.587703 35.630319 
L 132.356278 32.141542 
L 131.640253 31.455351 
L 136.264583 31.216676 
L 132.535285 33.961439 
L 132.654622 32.976905 
L 122.886047 36.465681 
L 122.587703 35.630319 
" clip-path="url(#peac0136dbd)"/>
    <path d="M 136.962164 35.640341 
L 146.777015 31.433976 
L 146.019934 30.793369 
L 150.620659 30.269235 
L 147.0682 33.239324 
L 147.126437 32.249294 
L 137.311586 36.455659 
L 136.962164 35.640341 
" clip-path="url(#peac0136dbd)"/>
    <path d="M 151.653688 36.281626 
L 151.420062 36.398438 
L 151.887313 36.748877 
L 149.200619 37.216128 
L 151.186437 35.347123 
L 151.186437 35.931187 
L 151.420062 35.814374 
L 151.653688 36.281626 
" clip-path="url(#peac0136dbd)"/>
    <path d="M 166.156923 36.433083 
L 154.19981 43.265719 
L 155.024989 43.815838 
L 150.514014 44.861063 
L 153.704703 41.505338 
L 153.759715 42.495552 
L 165.716827 35.662917 
L 166.156923 36.433083 
" clip-path="url(#peac0136dbd)"/>
    <path d="M 180.576712 36.421079 
L 173.46981 40.989802 
L 174.322563 41.496124 
L 169.872258 42.775254 
L 172.883542 39.257648 
L 172.990136 40.243643 
L 180.097038 35.674921 
L 180.576712 36.421079 
" clip-path="url(#peac0136dbd)"/>
    <path d="M 194.479084 35.687093 
L 197.968218 33.194855 
L 197.091729 32.730831 
L 201.474172 31.235645 
L 198.638474 34.896274 
L 198.483799 33.916669 
L 194.994666 36.408907 
L 194.479084 35.687093 
" clip-path="url(#peac0136dbd)"/>
    <path d="M 208.862859 35.699252 
L 221.780657 25.549553 
L 220.883877 25.126074 
L 225.193405 23.432155 
L 222.527974 27.218561 
L 222.32869 26.247049 
L 209.410891 36.396748 
L 208.862859 35.699252 
" clip-path="url(#peac0136dbd)"/>
    <path d="M 223.248236 35.711255 
L 226.807043 32.660848 
L 225.89302 32.275996 
L 230.126392 30.399843 
L 227.624854 34.296469 
L 227.384321 33.334339 
L 223.825514 36.384745 
L 223.248236 35.711255 
" clip-path="url(#peac0136dbd)"/>
    <path d="M 238.238669 36.373009 
L 230.576471 43.487906 
L 231.505067 43.836129 
L 227.349601 45.87904 
L 229.694305 41.886078 
L 229.972884 42.837889 
L 237.635081 35.722991 
L 238.238669 36.373009 
" clip-path="url(#peac0136dbd)"/>
    <path d="M 252.650491 36.361616 
L 240.09615 48.915957 
L 241.036998 49.229573 
L 236.95999 51.424885 
L 239.155302 47.347877 
L 239.468918 48.288725 
L 252.023259 35.734384 
L 252.650491 36.361616 
" clip-path="url(#peac0136dbd)"/>
   </g>
   <g id="matplotlib.axis_1">
    <g id="xtick_1">
     <g id="line2d_1">
      <defs>
       <path id="m9757ab0ec6" d="M 0 0 
L 0 3.5 
" style="stroke: #000000; stroke-width: 0.8"/>
      </defs>
      <g>
       <use xlink:href="#m9757ab0ec6" x="50.736875" y="247.728" style="stroke: #000000; stroke-width: 0.8"/>
      </g>
     </g>
     <g id="text_1">
      <!-- 0 -->
      <g transform="translate(46.283125 265.365813) scale(0.14 -0.14)">
       <defs>
        <path id="DejaVuSans-30" d="M 2034 4250 
Q 1547 4250 1301 3770 
Q 1056 3291 1056 2328 
Q 1056 1369 1301 889 
Q 1547 409 2034 409 
Q 2525 409 2770 889 
Q 3016 1369 3016 2328 
Q 3016 3291 2770 3770 
Q 2525 4250 2034 4250 
z
M 2034 4750 
Q 2819 4750 3233 4129 
Q 3647 3509 3647 2328 
Q 3647 1150 3233 529 
Q 2819 -91 2034 -91 
Q 1250 -91 836 529 
Q 422 1150 422 2328 
Q 422 3509 836 4129 
Q 1250 4750 2034 4750 
z
" transform="scale(0.015625)"/>
       </defs>
       <use xlink:href="#DejaVuSans-30"/>
      </g>
     </g>
    </g>
    <g id="xtick_2">
     <g id="line2d_2">
      <g>
       <use xlink:href="#m9757ab0ec6" x="101.136875" y="247.728" style="stroke: #000000; stroke-width: 0.8"/>
      </g>
     </g>
     <g id="text_2">
      <!-- 1 -->
      <g transform="translate(96.683125 265.365813) scale(0.14 -0.14)">
       <defs>
        <path id="DejaVuSans-31" d="M 794 531 
L 1825 531 
L 1825 4091 
L 703 3866 
L 703 4441 
L 1819 4666 
L 2450 4666 
L 2450 531 
L 3481 531 
L 3481 0 
L 794 0 
L 794 531 
z
" transform="scale(0.015625)"/>
       </defs>
       <use xlink:href="#DejaVuSans-31"/>
      </g>
     </g>
    </g>
    <g id="xtick_3">
     <g id="line2d_3">
      <g>
       <use xlink:href="#m9757ab0ec6" x="151.536875" y="247.728" style="stroke: #000000; stroke-width: 0.8"/>
      </g>
     </g>
     <g id="text_3">
      <!-- 2 -->
      <g transform="translate(147.083125 265.365813) scale(0.14 -0.14)">
       <defs>
        <path id="DejaVuSans-32" d="M 1228 531 
L 3431 531 
L 3431 0 
L 469 0 
L 469 531 
Q 828 903 1448 1529 
Q 2069 2156 2228 2338 
Q 2531 2678 2651 2914 
Q 2772 3150 2772 3378 
Q 2772 3750 2511 3984 
Q 2250 4219 1831 4219 
Q 1534 4219 1204 4116 
Q 875 4013 500 3803 
L 500 4441 
Q 881 4594 1212 4672 
Q 1544 4750 1819 4750 
Q 2544 4750 2975 4387 
Q 3406 4025 3406 3419 
Q 3406 3131 3298 2873 
Q 3191 2616 2906 2266 
Q 2828 2175 2409 1742 
Q 1991 1309 1228 531 
z
" transform="scale(0.015625)"/>
       </defs>
       <use xlink:href="#DejaVuSans-32"/>
      </g>
     </g>
    </g>
    <g id="xtick_4">
     <g id="line2d_4">
      <g>
       <use xlink:href="#m9757ab0ec6" x="201.936875" y="247.728" style="stroke: #000000; stroke-width: 0.8"/>
      </g>
     </g>
     <g id="text_4">
      <!-- 3 -->
      <g transform="translate(197.483125 265.365813) scale(0.14 -0.14)">
       <defs>
        <path id="DejaVuSans-33" d="M 2597 2516 
Q 3050 2419 3304 2112 
Q 3559 1806 3559 1356 
Q 3559 666 3084 287 
Q 2609 -91 1734 -91 
Q 1441 -91 1130 -33 
Q 819 25 488 141 
L 488 750 
Q 750 597 1062 519 
Q 1375 441 1716 441 
Q 2309 441 2620 675 
Q 2931 909 2931 1356 
Q 2931 1769 2642 2001 
Q 2353 2234 1838 2234 
L 1294 2234 
L 1294 2753 
L 1863 2753 
Q 2328 2753 2575 2939 
Q 2822 3125 2822 3475 
Q 2822 3834 2567 4026 
Q 2313 4219 1838 4219 
Q 1578 4219 1281 4162 
Q 984 4106 628 3988 
L 628 4550 
Q 988 4650 1302 4700 
Q 1616 4750 1894 4750 
Q 2613 4750 3031 4423 
Q 3450 4097 3450 3541 
Q 3450 3153 3228 2886 
Q 3006 2619 2597 2516 
z
" transform="scale(0.015625)"/>
       </defs>
       <use xlink:href="#DejaVuSans-33"/>
      </g>
     </g>
    </g>
    <g id="xtick_5">
     <g id="line2d_5">
      <g>
       <use xlink:href="#m9757ab0ec6" x="252.336875" y="247.728" style="stroke: #000000; stroke-width: 0.8"/>
      </g>
     </g>
     <g id="text_5">
      <!-- 4 -->
      <g transform="translate(247.883125 265.365813) scale(0.14 -0.14)">
       <defs>
        <path id="DejaVuSans-34" d="M 2419 4116 
L 825 1625 
L 2419 1625 
L 2419 4116 
z
M 2253 4666 
L 3047 4666 
L 3047 1625 
L 3713 1625 
L 3713 1100 
L 3047 1100 
L 3047 0 
L 2419 0 
L 2419 1100 
L 313 1100 
L 313 1709 
L 2253 4666 
z
" transform="scale(0.015625)"/>
       </defs>
       <use xlink:href="#DejaVuSans-34"/>
      </g>
     </g>
    </g>
    <g id="text_6">
     <!-- x -->
     <g transform="translate(147.021875 282.915188) scale(0.14 -0.14)">
      <defs>
       <path id="DejaVuSans-Bold-78" d="M 1422 1791 
L 159 3500 
L 1344 3500 
L 2059 2463 
L 2784 3500 
L 3969 3500 
L 2706 1797 
L 4031 0 
L 2847 0 
L 2059 1106 
L 1281 0 
L 97 0 
L 1422 1791 
z
" transform="scale(0.015625)"/>
      </defs>
      <use xlink:href="#DejaVuSans-Bold-78"/>
     </g>
    </g>
   </g>
   <g id="matplotlib.axis_2">
    <g id="ytick_1">
     <g id="line2d_6">
      <defs>
       <path id="ma3b4c308f2" d="M 0 0 
L -3.5 0 
" style="stroke: #000000; stroke-width: 0.8"/>
      </defs>
      <g>
       <use xlink:href="#ma3b4c308f2" x="40.656875" y="237.648" style="stroke: #000000; stroke-width: 0.8"/>
      </g>
     </g>
     <g id="text_7">
      <!-- 0 -->
      <g transform="translate(24.749375 242.966906) scale(0.14 -0.14)">
       <use xlink:href="#DejaVuSans-30"/>
      </g>
     </g>
    </g>
    <g id="ytick_2">
     <g id="line2d_7">
      <g>
       <use xlink:href="#ma3b4c308f2" x="40.656875" y="187.248" style="stroke: #000000; stroke-width: 0.8"/>
      </g>
     </g>
     <g id="text_8">
      <!-- 1 -->
      <g transform="translate(24.749375 192.566906) scale(0.14 -0.14)">
       <use xlink:href="#DejaVuSans-31"/>
      </g>
     </g>
    </g>
    <g id="ytick_3">
     <g id="line2d_8">
      <g>
       <use xlink:href="#ma3b4c308f2" x="40.656875" y="136.848" style="stroke: #000000; stroke-width: 0.8"/>
      </g>
     </g>
     <g id="text_9">
      <!-- 2 -->
      <g transform="translate(24.749375 142.166906) scale(0.14 -0.14)">
       <use xlink:href="#DejaVuSans-32"/>
      </g>
     </g>
    </g>
    <g id="ytick_4">
     <g id="line2d_9">
      <g>
       <use xlink:href="#ma3b4c308f2" x="40.656875" y="86.448" style="stroke: #000000; stroke-width: 0.8"/>
      </g>
     </g>
     <g id="text_10">
      <!-- 3 -->
      <g transform="translate(24.749375 91.766906) scale(0.14 -0.14)">
       <use xlink:href="#DejaVuSans-33"/>
      </g>
     </g>
    </g>
    <g id="ytick_5">
     <g id="line2d_10">
      <g>
       <use xlink:href="#ma3b4c308f2" x="40.656875" y="36.048" style="stroke: #000000; stroke-width: 0.8"/>
      </g>
     </g>
     <g id="text_11">
      <!-- 4 -->
      <g transform="translate(24.749375 41.366906) scale(0.14 -0.14)">
       <use xlink:href="#DejaVuSans-34"/>
      </g>
     </g>
    </g>
    <g id="text_12">
     <!-- y -->
     <g transform="translate(17.728437 141.411125) rotate(-90) scale(0.14 -0.14)">
      <defs>
       <path id="DejaVuSans-Bold-79" d="M 78 3500 
L 1197 3500 
L 2138 1125 
L 2938 3500 
L 4056 3500 
L 2584 -331 
Q 2363 -916 2067 -1148 
Q 1772 -1381 1288 -1381 
L 641 -1381 
L 641 -647 
L 991 -647 
Q 1275 -647 1404 -556 
Q 1534 -466 1606 -231 
L 1638 -134 
L 78 3500 
z
" transform="scale(0.015625)"/>
      </defs>
      <use xlink:href="#DejaVuSans-Bold-79"/>
     </g>
    </g>
   </g>
   <g id="patch_3">
    <path d="M 40.656875 247.728 
L 40.656875 25.968 
" style="fill: none; stroke: #000000; stroke-width: 0.8; stroke-linejoin: miter; stroke-linecap: square"/>
   </g>
   <g id="patch_4">
    <path d="M 262.416875 247.728 
L 262.416875 25.968 
" style="fill: none; stroke: #000000; stroke-width: 0.8; stroke-linejoin: miter; stroke-linecap: square"/>
   </g>
   <g id="patch_5">
    <path d="M 40.656875 247.728 
L 262.416875 247.728 
" style="fill: none; stroke: #000000; stroke-width: 0.8; stroke-linejoin: miter; stroke-linecap: square"/>
   </g>
   <g id="patch_6">
    <path d="M 40.656875 25.968 
L 262.416875 25.968 
" style="fill: none; stroke: #000000; stroke-width: 0.8; stroke-linejoin: miter; stroke-linecap: square"/>
   </g>
   <g id="text_13">
    <!-- $ \sin(xy)$ -->
    <g transform="translate(117.348875 19.968) scale(0.168 -0.168)">
     <defs>
      <path id="DejaVuSans-2207" d="M 2138 659 
L 3444 4047 
L 831 4047 
L 2138 659 
z
M 1791 0 
L -19 4603 
L 4300 4603 
L 2491 0 
L 1791 0 
z
" transform="scale(0.015625)"/>
      <path id="DejaVuSans-73" d="M 2834 3397 
L 2834 2853 
Q 2591 2978 2328 3040 
Q 2066 3103 1784 3103 
Q 1356 3103 1142 2972 
Q 928 2841 928 2578 
Q 928 2378 1081 2264 
Q 1234 2150 1697 2047 
L 1894 2003 
Q 2506 1872 2764 1633 
Q 3022 1394 3022 966 
Q 3022 478 2636 193 
Q 2250 -91 1575 -91 
Q 1294 -91 989 -36 
Q 684 19 347 128 
L 347 722 
Q 666 556 975 473 
Q 1284 391 1588 391 
Q 1994 391 2212 530 
Q 2431 669 2431 922 
Q 2431 1156 2273 1281 
Q 2116 1406 1581 1522 
L 1381 1569 
Q 847 1681 609 1914 
Q 372 2147 372 2553 
Q 372 3047 722 3315 
Q 1072 3584 1716 3584 
Q 2034 3584 2315 3537 
Q 2597 3491 2834 3397 
z
" transform="scale(0.015625)"/>
      <path id="DejaVuSans-69" d="M 603 3500 
L 1178 3500 
L 1178 0 
L 603 0 
L 603 3500 
z
M 603 4863 
L 1178 4863 
L 1178 4134 
L 603 4134 
L 603 4863 
z
" transform="scale(0.015625)"/>
      <path id="DejaVuSans-6e" d="M 3513 2113 
L 3513 0 
L 2938 0 
L 2938 2094 
Q 2938 2591 2744 2837 
Q 2550 3084 2163 3084 
Q 1697 3084 1428 2787 
Q 1159 2491 1159 1978 
L 1159 0 
L 581 0 
L 581 3500 
L 1159 3500 
L 1159 2956 
Q 1366 3272 1645 3428 
Q 1925 3584 2291 3584 
Q 2894 3584 3203 3211 
Q 3513 2838 3513 2113 
z
" transform="scale(0.015625)"/>
      <path id="DejaVuSans-28" d="M 1984 4856 
Q 1566 4138 1362 3434 
Q 1159 2731 1159 2009 
Q 1159 1288 1364 580 
Q 1569 -128 1984 -844 
L 1484 -844 
Q 1016 -109 783 600 
Q 550 1309 550 2009 
Q 550 2706 781 3412 
Q 1013 4119 1484 4856 
L 1984 4856 
z
" transform="scale(0.015625)"/>
      <path id="DejaVuSans-Oblique-78" d="M 3841 3500 
L 2234 1784 
L 3219 0 
L 2559 0 
L 1819 1388 
L 531 0 
L -166 0 
L 1556 1844 
L 641 3500 
L 1300 3500 
L 1972 2234 
L 3144 3500 
L 3841 3500 
z
" transform="scale(0.015625)"/>
      <path id="DejaVuSans-Oblique-79" d="M 1588 -325 
Q 1188 -997 936 -1164 
Q 684 -1331 294 -1331 
L -159 -1331 
L -63 -850 
L 269 -850 
Q 509 -850 678 -719 
Q 847 -588 1056 -206 
L 1234 128 
L 459 3500 
L 1069 3500 
L 1650 819 
L 3256 3500 
L 3859 3500 
L 1588 -325 
z
" transform="scale(0.015625)"/>
      <path id="DejaVuSans-29" d="M 513 4856 
L 1013 4856 
Q 1481 4119 1714 3412 
Q 1947 2706 1947 2009 
Q 1947 1309 1714 600 
Q 1481 -109 1013 -844 
L 513 -844 
Q 928 -128 1133 580 
Q 1338 1288 1338 2009 
Q 1338 2731 1133 3434 
Q 928 4138 513 4856 
z
" transform="scale(0.015625)"/>
     </defs>
     <use xlink:href="#DejaVuSans-2207" transform="translate(0 0.015625)"/>
     <use xlink:href="#DejaVuSans-73" transform="translate(66.894531 0.015625)"/>
     <use xlink:href="#DejaVuSans-69" transform="translate(118.994141 0.015625)"/>
     <use xlink:href="#DejaVuSans-6e" transform="translate(146.777344 0.015625)"/>
     <use xlink:href="#DejaVuSans-28" transform="translate(210.15625 0.015625)"/>
     <use xlink:href="#DejaVuSans-Oblique-78" transform="translate(249.169922 0.015625)"/>
     <use xlink:href="#DejaVuSans-Oblique-79" transform="translate(308.349609 0.015625)"/>
     <use xlink:href="#DejaVuSans-29" transform="translate(367.529297 0.015625)"/>
    </g>
   </g>
  </g>
 </g>
 <defs>
  <clipPath id="peac0136dbd">
   <rect x="40.656875" y="25.968" width="221.76" height="221.76"/>
  </clipPath>
 </defs>
</svg>